<svg xmlns="http://www.w3.org/2000/svg" viewBox="0 0 219.22 75.71"><defs><style>.cls-1{fill:#00a6ce;}.cls-2{fill:#ef3f39;}</style></defs><title>Asset 6</title><g id="Layer_2" data-name="Layer 2"><g id="Layer_1-2" data-name="Layer 1"><path class="cls-1" d="M71.67,48.48a101.36,101.36,0,0,0,48.8,20.22A84.85,84.85,0,0,0,146.81,68c8.57-1.64,16.89-4.83,23.54-10a35.91,35.91,0,0,0,4.59-4.2c.7-.77,1.3-1.55,2-2.38s1.32-1.75,2-2.64a53.73,53.73,0,0,0,3.41-5.43,20.79,20.79,0,0,0,2.15-5.3,8.16,8.16,0,0,0-.51-4.51,6.21,6.21,0,0,0-2.61-3.2A4.27,4.27,0,0,0,177.9,30a4.64,4.64,0,0,0-2.59,2.45,8.42,8.42,0,0,0-.73,4.43A16,16,0,0,0,176.25,42a33.88,33.88,0,0,0,7.23,9.64,26.12,26.12,0,0,0,10.1,5.89A24.7,24.7,0,0,0,205.1,58h0a4.42,4.42,0,1,1,1.57,8.7h0a33.63,33.63,0,0,1-15.64-.82,34.69,34.69,0,0,1-13.35-7.91,41.85,41.85,0,0,1-9-12.32,24,24,0,0,1-2.36-7.95,16.11,16.11,0,0,1,.22-4.51,14.9,14.9,0,0,1,1.47-4.38,12.67,12.67,0,0,1,7.4-6.41,12.25,12.25,0,0,1,9.82,1.16,14,14,0,0,1,5.91,7.21,15.74,15.74,0,0,1,.76,9,28.07,28.07,0,0,1-3,7.35,61.28,61.28,0,0,1-4,6.12c-.7,1-1.44,1.93-2.16,2.85s-1.62,1.93-2.48,2.83a42.14,42.14,0,0,1-5.61,4.93c-8,5.91-17.35,9.16-26.73,10.77a91.5,91.5,0,0,1-28.32.12,106.79,106.79,0,0,1-51-22.39,2.41,2.41,0,0,1,3-3.8Z"/><path class="cls-2" d="M23.48,34.05c0,8-5,12-11.74,12S0,42.2,0,35.22v-.48C0,27.83,4.56,23.9,11.74,23.9h5.87V20.51c0-5.18-2.62-6.9-5.87-6.9a4.92,4.92,0,0,0-5.25,5.18,1.56,1.56,0,0,1-1.72,1.72H2.62c-1.31,0-2-.62-2-1.93C.62,12.5,5,8.15,11.74,8.15s11.74,4,11.74,12Zm-5.87-.35V29.15H11.74c-3.24,0-5.87,1.58-5.87,5.66s2.63,5.8,5.87,5.8S17.61,38.88,17.61,33.7Z"/><path class="cls-2" d="M38.61,45.58c-6.22,0-9.74-2.55-9.74-9.67V2a1.74,1.74,0,0,1,1.94-2h1.93a1.79,1.79,0,0,1,2,2V8.91h7a1.79,1.79,0,0,1,2,2v1.52a1.74,1.74,0,0,1-2,1.94h-7V35.5c0,3.52,1.38,4.63,4.63,4.63a14.29,14.29,0,0,0,2.35-.28c1.31-.21,2,.62,2,1.93V43.3a1.83,1.83,0,0,1-1.73,2A15.46,15.46,0,0,1,38.61,45.58Z"/><path class="cls-1" d="M65.68,32.7h2.15c1.31,0,2,.62,2,1.93,0,6.36-4.63,10.57-11.4,10.57s-11.74-4-11.74-12V19.3c0-8,5-12,11.74-12s11.74,4,11.74,12v6.42a1.74,1.74,0,0,1-2,1.94H52.56v5.18c0,5.18,2.63,6.9,5.87,6.9S64,37.67,64,34.43A1.56,1.56,0,0,1,65.68,32.7ZM52.56,22.55H64.3v-2.9c0-5.18-2.62-6.91-5.87-6.91s-5.87,1.73-5.87,6.91Z"/><path class="cls-1" d="M97.53,33.18c0,8-5,12-11.75,12S74,41.33,74,34.36v-.49C74,27,78.6,23,85.78,23h5.88V19.65c0-5.18-2.63-6.91-5.88-6.91a4.91,4.91,0,0,0-5.24,5.18,1.57,1.57,0,0,1-1.73,1.73H76.67a1.74,1.74,0,0,1-2-1.94c0-6.08,4.42-10.43,11.11-10.43s11.75,4,11.75,12Zm-5.87-.34V28.28H85.78c-3.24,0-5.87,1.59-5.87,5.66s2.63,5.8,5.87,5.8S91.66,38,91.66,32.84Z"/><path class="cls-1" d="M117.9,17.23c0-3-2.14-4.49-5.18-4.49s-5.11,1.52-5.11,4.7v.13c0,8.08,16.65,4.08,16.65,17.62,0,6.42-4.84,10-11.47,10s-11.33-4-11.33-9.67v-.34a1.7,1.7,0,0,1,1.94-1.94h2.14A1.54,1.54,0,0,1,107.27,35c0,3.31,2.41,4.76,5.52,4.76s5.6-1.31,5.6-4.76v-.14c0-8.08-16.65-3.94-16.65-17.4,0-6.43,4.63-10.16,11-10.16s11,4.08,11,9.67V17a1.79,1.79,0,0,1-2,2h-2.14a1.56,1.56,0,0,1-1.73-1.72Z"/><path class="cls-1" d="M147.19,32.7h2.14c1.31,0,2,.62,2,1.93,0,6.36-4.63,10.57-11.39,10.57s-11.74-4-11.74-12V19.3c0-8,5-12,11.74-12s11.74,4,11.74,12v6.42a1.74,1.74,0,0,1-2,1.94H134.07v5.18c0,5.18,2.62,6.9,5.87,6.9s5.52-2.07,5.52-5.31A1.57,1.57,0,0,1,147.19,32.7ZM134.07,22.55h11.74v-2.9c0-5.18-2.63-6.91-5.87-6.91s-5.87,1.73-5.87,6.91Z"/><circle class="cls-1" cx="215.82" cy="60.3" r="3.4"/></g></g></svg>